<svg width="180" height="180" viewBox="0 0 180 180" fill="none" xmlns="http://www.w3.org/2000/svg">
<path d="M152.273 41.94C149.839 38.2644 146.394 35.4528 142.308 33.8184C133.438 30.2616 125.809 27.8856 118.984 26.5464C114.196 25.6104 109.454 27.9648 107.176 32.4L106.607 33.5088C101.552 32.9508 96.1848 32.7636 90.072 32.9184C83.8044 32.7672 78.4188 32.9508 73.3572 33.5088L72.792 32.4C70.5132 27.9648 65.7648 25.614 60.9876 26.55C54.162 27.8856 46.53 30.2616 37.6632 33.822C33.5808 35.4564 30.1356 38.2644 27.6984 41.9436C10.7028 67.6152 4.0428 95.3064 7.3404 126.605C7.4556 127.703 8.0676 128.686 9 129.272C22.0752 137.516 33.39 143.161 44.6076 147.042C49.2984 148.68 54.5004 146.848 57.2688 142.618L62.2044 135.054C58.2732 133.571 54.4356 131.814 50.7564 129.715C49.032 128.732 48.4308 126.533 49.4136 124.808C50.3964 123.077 52.596 122.468 54.324 123.466C65.2716 129.708 77.6484 133.009 90.1152 133.009C102.582 133.009 114.959 129.708 125.906 123.466C127.631 122.468 129.83 123.077 130.817 124.808C131.8 126.533 131.198 128.732 129.474 129.715C125.672 131.886 121.698 133.693 117.626 135.202L122.706 142.769C124.798 145.883 128.25 147.654 131.807 147.654C132.966 147.654 134.136 147.463 135.274 147.074C146.524 143.19 157.86 137.538 170.964 129.276C171.896 128.689 172.508 127.703 172.624 126.608C175.928 95.3064 169.268 67.6116 152.273 41.94ZM66.9888 104.339C60.0552 104.339 54.3492 97.0344 54.3492 88.1568C54.3492 79.2792 60.0552 71.9748 66.9888 71.9748C73.9224 71.9748 79.6284 79.2792 79.6284 88.1568C79.6284 97.0344 73.9224 104.339 66.9888 104.339ZM113.764 104.245C106.895 104.245 101.243 96.8976 101.243 87.966C101.243 79.0344 106.895 71.6868 113.764 71.6868C120.632 71.6868 126.284 79.0344 126.284 87.966C126.284 96.8976 120.632 104.245 113.764 104.245Z" fill="white"/>
</svg>
