<svg width="768" height="768" viewBox="0 0 768 768" fill="none" xmlns="http://www.w3.org/2000/svg">
<g clip-path="url(#clip0_69_5)">
<path d="M423.45 515.55L372.15 564.15C366.75 572.25 357.6 576 348 576H288V636C288 655.95 271.95 672 252 672H192V732C192 751.95 175.95 768 156 768H36C16.125 768 0 751.95 0 732V612C0 602.4 3.7935 593.25 10.5435 586.5L252.45 344.55C244.35 319.2 240 292.05 240 264C240 118.2 358.2 0 504 0C649.8 0 768 118.2 768 264C768 409.8 649.8 528 504 528C475.95 528 448.8 523.65 423.45 515.55ZM564 264C597.15 264 624 237.15 624 204C624 170.85 597.15 144 564 144C530.85 144 504 170.85 504 204C504 237.15 530.85 264 564 264Z" fill="#151515"/>
</g>
<defs>
<clipPath id="clip0_69_5">
<rect width="768" height="768" fill="white"/>
</clipPath>
</defs>
</svg>
