<svg width="180" height="180" viewBox="0 0 180 180" fill="none" xmlns="http://www.w3.org/2000/svg">
<path d="M54 150H24V60H54V150ZM39.006 48C30.708 48 24 41.274 24 32.994C24 24.714 30.72 18 39.006 18C47.274 18 54 24.726 54 32.994C54 41.274 47.274 48 39.006 48ZM162 150H133.158V106.2C133.158 95.754 132.96 82.32 118.164 82.32C103.146 82.32 100.836 93.696 100.836 105.444V150H72V59.934H99.684V72.24H100.074C103.926 65.16 113.34 57.696 127.38 57.696C156.6 57.696 162 76.35 162 100.602V150Z" fill="white"/>
</svg>
