<svg width="36" height="36" viewBox="0 0 36 36" fill="none" xmlns="http://www.w3.org/2000/svg">
<path d="M18 4.5C16.2201 6.29237 15.2232 8.71712 15.2276 11.2431C15.2321 13.769 16.2375 16.1903 18.0236 17.9764C19.8097 19.7625 22.231 20.7679 24.7569 20.7724C27.2829 20.7768 29.7076 19.7799 31.5 18C31.5 20.67 30.7082 23.2801 29.2248 25.5002C27.7414 27.7203 25.633 29.4506 23.1662 30.4724C20.6994 31.4942 17.985 31.7615 15.3663 31.2406C12.7475 30.7197 10.3421 29.4339 8.45406 27.5459C6.56606 25.6579 5.28031 23.2525 4.7594 20.6337C4.2385 18.015 4.50585 15.3006 5.52763 12.8338C6.54942 10.367 8.27974 8.25856 10.4998 6.77516C12.7199 5.29176 15.33 4.5 18 4.5Z" fill="#2C4E6D" stroke="#2C4E6D" stroke-width="3" stroke-linecap="round" stroke-linejoin="round"/>
</svg>
