<svg width="60" height="60" viewBox="0 0 60 60" fill="none" xmlns="http://www.w3.org/2000/svg">
<path d="M30 6C16.8 6 6 16.8 6 30C6 43.2 16.8 54 30 54C43.2 54 54 43.2 54 30C54 16.8 43.2 6 30 6ZM39.462 42C39.022 42 38.802 41.78 38.362 41.56C35.062 39.578 30.882 38.48 26.482 38.48C24.062 38.48 21.422 38.92 19.222 39.36C18.782 39.36 18.342 39.58 18.122 39.58C17.242 39.58 16.582 38.92 16.582 38.04C16.582 37.16 17.022 36.5 17.902 36.5C20.762 35.84 23.624 35.4 26.704 35.4C31.764 35.4 36.384 36.72 40.344 38.92C40.784 39.36 41.224 39.58 41.224 40.46C40.78 41.56 40.12 42 39.462 42ZM41.88 35.842C41.44 35.842 41 35.622 40.56 35.402C36.82 32.982 31.538 31.662 25.82 31.662C22.96 31.662 20.318 32.102 18.34 32.542C17.9 32.762 17.68 32.762 17.24 32.762C16.14 32.762 15.478 31.882 15.478 31C15.478 29.9 15.918 29.46 17.018 29.018C19.658 28.358 22.3 27.698 26.04 27.698C32.2 27.698 37.92 29.238 42.762 32.098C43.422 32.538 43.862 33.198 43.862 33.86C43.64 34.96 42.982 35.842 41.88 35.842ZM44.74 28.8C44.3 28.8 44.08 28.58 43.42 28.36C39.02 25.94 32.64 24.4 26.48 24.4C23.4 24.4 20.1 24.84 17.238 25.5C16.798 25.5 16.578 25.72 15.918 25.72C14.598 25.942 13.718 24.84 13.718 23.522C13.718 22.204 14.378 21.54 15.258 21.322C18.78 20.44 22.52 20 26.48 20C33.3 20 40.34 21.54 45.842 24.4C46.502 24.84 47.162 25.5 47.162 26.6C46.942 27.92 46.06 28.8 44.74 28.8Z" fill="#1DB954"/>
</svg>
