<svg width="36" height="36" viewBox="0 0 36 36" fill="none" xmlns="http://www.w3.org/2000/svg">
<path d="M18 24C19.5913 24 21.1174 23.3679 22.2426 22.2426C23.3679 21.1174 24 19.5913 24 18C24 16.4087 23.3679 14.8826 22.2426 13.7574C21.1174 12.6321 19.5913 12 18 12C16.4087 12 14.8826 12.6321 13.7574 13.7574C12.6321 14.8826 12 16.4087 12 18C12 19.5913 12.6321 21.1174 13.7574 22.2426C14.8826 23.3679 16.4087 24 18 24Z" stroke="#FFDA55" stroke-width="3" stroke-linecap="round" stroke-linejoin="round"/>
<path d="M18 4.5V6" stroke="#FFDA55" stroke-width="3" stroke-linecap="round" stroke-linejoin="round"/>
<path d="M18 30V31.5" stroke="#FFDA55" stroke-width="3" stroke-linecap="round" stroke-linejoin="round"/>
<path d="M4.5 18H6" stroke="#FFDA55" stroke-width="3" stroke-linecap="round" stroke-linejoin="round"/>
<path d="M30 18H31.5" stroke="#FFDA55" stroke-width="3" stroke-linecap="round" stroke-linejoin="round"/>
<path d="M27.5461 8.45401L26.4856 9.51451" stroke="#FFDA55" stroke-width="3" stroke-linecap="round" stroke-linejoin="round"/>
<path d="M9.5146 26.4855L8.4541 27.546" stroke="#FFDA55" stroke-width="3" stroke-linecap="round" stroke-linejoin="round"/>
<path d="M8.4541 8.45401L9.5146 9.51451" stroke="#FFDA55" stroke-width="3" stroke-linecap="round" stroke-linejoin="round"/>
<path d="M26.4856 26.4855L27.5461 27.546" stroke="#FFDA55" stroke-width="3" stroke-linecap="round" stroke-linejoin="round"/>
</svg>
